//La# -----------------------------------------------------------
<region>
sample=A#2-1.wav
lokey=34
hikey=34
pitch_keycenter=34
hirand=0.33

<region>
sample=A#2-2.wav
lokey=34
hikey=34
pitch_keycenter=34
lorand=0.33
hirand=0.66

<region>
sample=A#2-3.wav
lokey=34
hikey=34
pitch_keycenter=34
lorand=0.66



<region>
sample=A#3-1.wav
lokey=46
hikey=46
pitch_keycenter=46
hirand=0.33

<region>
sample=A#3-2.wav
lokey=46
hikey=46
pitch_keycenter=46
lorand=0.33
hirand=0.66

<region>
sample=A#3-3.wav
lokey=46
hikey=46
pitch_keycenter=46
lorand=0.66




<region>
sample=A#4-1.wav
lokey=58
hikey=58
pitch_keycenter=58
hirand=0.33

<region>
sample=A#4-2.wav
lokey=58
hikey=58
pitch_keycenter=58
lorand=0.33
hirand=0.66

<region>
sample=A#4-3.wav
lokey=58
hikey=58
pitch_keycenter=58
lorand=0.66


//La  -----------------------------------------------------------
<region>
sample=A2-1.wav
lokey=33
hikey=33
pitch_keycenter=33
hirand=0.33

<region>
sample=A2-2.wav
lokey=33
hikey=33
pitch_keycenter=33
lorand=0.33
hirand=0.66

<region>
sample=A2-3.wav
lokey=33
hikey=33
pitch_keycenter=33
lorand=0.66




<region>
sample=A3-1.wav
lokey=45
hikey=45
pitch_keycenter=45
hirand=0.33

<region>
sample=A3-2.wav
lokey=45
hikey=45
pitch_keycenter=45
lorand=0.33
hirand=0.66

<region>
sample=A3-3.wav
lokey=45
hikey=45
pitch_keycenter=45
lorand=0.66




<region>
sample=A4-1.wav
lokey=57
hikey=57
pitch_keycenter=57
hirand=0.33

<region>
sample=A4-2.wav
lokey=57
hikey=57
pitch_keycenter=57
lorand=0.33
hirand=0.66

<region>
sample=A4-3.wav
lokey=57
hikey=57
pitch_keycenter=57
lorand=0.66


//Si  -----------------------------------------------------------
<region>
sample=B2-1.wav
lokey=35
hikey=35
pitch_keycenter=35
hirand=0.33

<region>
sample=B2-2.wav
lokey=35
hikey=35
pitch_keycenter=35
lorand=0.33
hirand=0.66

<region>
sample=B2-3.wav
lokey=35
hikey=35
pitch_keycenter=35
lorand=0.66




<region>
sample=B3-1.wav
lokey=47
hikey=47
pitch_keycenter=47
hirand=0.33

<region>
sample=B3-2.wav
lokey=47
hikey=47
pitch_keycenter=47
lorand=0.33
hirand=0.66

<region>
sample=B3-3.wav
lokey=47
hikey=47
pitch_keycenter=47
lorand=0.66




<region>
sample=B4-1.wav
lokey=59
hikey=59
pitch_keycenter=59
hirand=0.33

<region>
sample=B4-2.wav
lokey=59
hikey=59
pitch_keycenter=59
lorand=0.33
hirand=0.66

<region>
sample=B4-3.wav
lokey=59
hikey=59
pitch_keycenter=59
lorand=0.66


//do#  -----------------------------------------------------------
<region>
sample=C#3-1.wav
lokey=37
hikey=37
pitch_keycenter=37
hirand=0.33

<region>
sample=C#3-2.wav
lokey=37
hikey=37
pitch_keycenter=37
lorand=0.33
hirand=0.66

<region>
sample=C#3-3.wav
lokey=37
hikey=37
pitch_keycenter=37
lorand=0.66




<region>
sample=C#4-1.wav
lokey=49
hikey=49
pitch_keycenter=49
hirand=0.33

<region>
sample=C#4-2.wav
lokey=49
hikey=49
pitch_keycenter=49
lorand=0.33
hirand=0.66

<region>
sample=C#4-3.wav
lokey=49
hikey=49
pitch_keycenter=49
lorand=0.66


<region>
sample=C#5-1.wav
lokey=61
hikey=61
pitch_keycenter=61
hirand=0.33

<region>
sample=C#5-2.wav
lokey=61
hikey=61
pitch_keycenter=61
lorand=0.33
hirand=0.66

<region>
sample=C#5-3.wav
lokey=61
hikey=61
pitch_keycenter=61
lorand=0.66


//Do  -----------------------------------------------------------
<region>
sample=C3-1.wav
lokey=36
hikey=36
pitch_keycenter=36
hirand=0.33

<region>
sample=C3-2.wav
lokey=36
hikey=36
pitch_keycenter=36
lorand=0.33
hirand=0.66

<region>
sample=C3-3.wav
lokey=36
hikey=36
pitch_keycenter=36
lorand=0.66




<region>
sample=C4-1.wav
lokey=48
hikey=48
pitch_keycenter=48
hirand=0.33

<region>
sample=C4-2.wav
lokey=48
hikey=48
pitch_keycenter=48
lorand=0.33
hirand=0.66

<region>
sample=C4-3.wav
lokey=48
hikey=48
pitch_keycenter=48
lorand=0.66


<region>
sample=C5-1.wav
lokey=60
hikey=60
pitch_keycenter=60
hirand=0.33

<region>
sample=C5-2.wav
lokey=60
hikey=60
pitch_keycenter=60
lorand=0.33
hirand=0.66

<region>
sample=C5-3.wav
lokey=60
hikey=60
pitch_keycenter=60
lorand=0.66


//Ré#  -----------------------------------------------------------
<region>
sample=D#3-1.wav
lokey=39
hikey=39
pitch_keycenter=39
hirand=0.33

<region>
sample=D#3-2.wav
lokey=39
hikey=39
pitch_keycenter=39
lorand=0.33
hirand=0.66

<region>
sample=D#3-3.wav
lokey=39
hikey=39
pitch_keycenter=39
lorand=0.66




<region>
sample=D#4-1.wav
lokey=51
hikey=51
pitch_keycenter=51
hirand=0.33

<region>
sample=D#4-2.wav
lokey=51
hikey=51
pitch_keycenter=51
lorand=0.33
hirand=0.66

<region>
sample=D#4-3.wav
lokey=51
hikey=51
pitch_keycenter=51
lorand=0.66


<region>
sample=D#5-1.wav
lokey=63
hikey=63
pitch_keycenter=63
hirand=0.33

<region>
sample=D#5-2.wav
lokey=63
hikey=63
pitch_keycenter=63
lorand=0.33
hirand=0.66

<region>
sample=D#5-3.wav
lokey=63
hikey=63
pitch_keycenter=63
lorand=0.66


//Ré  -----------------------------------------------------------
<region>
sample=D3-1.wav
lokey=38
hikey=38
pitch_keycenter=38
hirand=0.33

<region>
sample=D3-2.wav
lokey=38
hikey=38
pitch_keycenter=38
lorand=0.33
hirand=0.66

<region>
sample=D3-3.wav
lokey=38
hikey=38
pitch_keycenter=38
lorand=0.66




<region>
sample=D4-1.wav
lokey=50
hikey=50
pitch_keycenter=50
hirand=0.33

<region>
sample=D4-2.wav
lokey=50
hikey=50
pitch_keycenter=50
lorand=0.33
hirand=0.66

<region>
sample=D4-3.wav
lokey=50
hikey=50
pitch_keycenter=50
lorand=0.66


<region>
sample=D5-1.wav
lokey=62
hikey=62
pitch_keycenter=62
hirand=0.33

<region>
sample=D5-2.wav
lokey=62
hikey=62
pitch_keycenter=62
lorand=0.33
hirand=0.66

<region>
sample=D5-3.wav
lokey=62
hikey=62
pitch_keycenter=62
lorand=0.66


//Mi  -----------------------------------------------------------
<region>
sample=E2-1.wav
lokey=28
hikey=28
pitch_keycenter=28
hirand=0.33

<region>
sample=E2-2.wav
lokey=28
hikey=28
pitch_keycenter=28
lorand=0.33
hirand=0.66

<region>
sample=E2-3.wav
lokey=28
hikey=28
pitch_keycenter=28
lorand=0.66


<region>
sample=E3-1.wav
lokey=40
hikey=40
pitch_keycenter=40
hirand=0.33

<region>
sample=E3-2.wav
lokey=40
hikey=40
pitch_keycenter=40
lorand=0.33
hirand=0.66

<region>
sample=E3-3.wav
lokey=40
hikey=40
pitch_keycenter=40
lorand=0.66




<region>
sample=E4-1.wav
lokey=52
hikey=52
pitch_keycenter=52
hirand=0.33

<region>
sample=E4-2.wav
lokey=52
hikey=52
pitch_keycenter=52
lorand=0.33
hirand=0.66

<region>
sample=E4-3.wav
lokey=52
hikey=52
pitch_keycenter=52
lorand=0.66


<region>
sample=E5-1.wav
lokey=64
hikey=76
pitch_keycenter=64
hirand=0.33

<region>
sample=E5-2.wav
lokey=64
hikey=76
pitch_keycenter=64
lorand=0.33
hirand=0.66

<region>
sample=E5-3.wav
lokey=64
hikey=76
pitch_keycenter=64
lorand=0.66


//Fa#  -----------------------------------------------------------
<region>
sample=F#2-1.wav
lokey=30
hikey=30
pitch_keycenter=30
hirand=0.33

<region>
sample=F#2-2.wav
lokey=30
hikey=30
pitch_keycenter=30
lorand=0.33
hirand=0.66

<region>
sample=F#2-3.wav
lokey=30
hikey=30
pitch_keycenter=30
lorand=0.66


<region>
sample=F#3-1.wav
lokey=42
hikey=42
pitch_keycenter=42
hirand=0.33

<region>
sample=F#3-2.wav
lokey=42
hikey=42
pitch_keycenter=42
lorand=0.33
hirand=0.66

<region>
sample=F#3-3.wav
lokey=42
hikey=42
pitch_keycenter=42
lorand=0.66




<region>
sample=F#4-1.wav
lokey=54
hikey=54
pitch_keycenter=54
hirand=0.33

<region>
sample=F#4-2.wav
lokey=54
hikey=54
pitch_keycenter=54
lorand=0.33
hirand=0.66

<region>
sample=F#4-3.wav
lokey=54
hikey=54
pitch_keycenter=54
lorand=0.66



//Fa  -----------------------------------------------------------
<region>
sample=F2-1.wav
lokey=29
hikey=29
pitch_keycenter=29
hirand=0.33

<region>
sample=F2-2.wav
lokey=29
hikey=29
pitch_keycenter=29
lorand=0.33
hirand=0.66

<region>
sample=F2-3.wav
lokey=29
hikey=29
pitch_keycenter=29
lorand=0.66


<region>
sample=F3-1.wav
lokey=41
hikey=41
pitch_keycenter=41
hirand=0.33

<region>
sample=F3-2.wav
lokey=41
hikey=41
pitch_keycenter=41
lorand=0.33
hirand=0.66

<region>
sample=F3-3.wav
lokey=41
hikey=41
pitch_keycenter=41
lorand=0.66




<region>
sample=F4-1.wav
lokey=53
hikey=53
pitch_keycenter=53
hirand=0.33

<region>
sample=F4-2.wav
lokey=53
hikey=53
pitch_keycenter=53
lorand=0.33
hirand=0.66

<region>
sample=F4-3.wav
lokey=53
hikey=53
pitch_keycenter=53
lorand=0.66


//Sol#  -----------------------------------------------------------
<region>
sample=G#2-1.wav
lokey=32
hikey=32
pitch_keycenter=32
hirand=0.33

<region>
sample=G#2-2.wav
lokey=32
hikey=32
pitch_keycenter=32
lorand=0.33
hirand=0.66

<region>
sample=G#2-3.wav
lokey=32
hikey=32
pitch_keycenter=32
lorand=0.66


<region>
sample=G#3-1.wav
lokey=44
hikey=44
pitch_keycenter=44
hirand=0.33

<region>
sample=G#3-2.wav
lokey=44
hikey=44
pitch_keycenter=44
lorand=0.33
hirand=0.66

<region>
sample=G#3-3.wav
lokey=44
hikey=44
pitch_keycenter=44
lorand=0.66




<region>
sample=G#4-1.wav
lokey=56
hikey=56
pitch_keycenter=56
hirand=0.33

<region>
sample=G#4-2.wav
lokey=56
hikey=56
pitch_keycenter=56
lorand=0.33
hirand=0.66

<region>
sample=G#4-3.wav
lokey=56
hikey=56
pitch_keycenter=56
lorand=0.66


//Sol  -----------------------------------------------------------
<region>
sample=G2-1.wav
lokey=31
hikey=31
pitch_keycenter=31
hirand=0.33

<region>
sample=G2-2.wav
lokey=31
hikey=31
pitch_keycenter=31
lorand=0.33
hirand=0.66

<region>
sample=G2-3.wav
lokey=31
hikey=31
pitch_keycenter=31
lorand=0.66


<region>
sample=G3-1.wav
lokey=43
hikey=43
pitch_keycenter=43
hirand=0.33

<region>
sample=G3-2.wav
lokey=43
hikey=43
pitch_keycenter=43
lorand=0.33
hirand=0.66

<region>
sample=G3-3.wav
lokey=43
hikey=43
pitch_keycenter=43
lorand=0.66




<region>
sample=G4-1.wav
lokey=55
hikey=55
pitch_keycenter=55
hirand=0.33

<region>
sample=G4-2.wav
lokey=55
hikey=55
pitch_keycenter=55
lorand=0.33
hirand=0.66

<region>
sample=G4-3.wav
lokey=55
hikey=55
pitch_keycenter=55
lorand=0.66
